<?xml version="1.0" standalone="no"?>
<!DOCTYPE svg PUBLIC "-//W3C//DTD SVG 20010904//EN"
 "http://www.w3.org/TR/2001/REC-SVG-20010904/DTD/svg10.dtd">
<svg version="1.0" xmlns="http://www.w3.org/2000/svg"
 width="310.000000pt" height="310.000000pt" viewBox="0 0 310.000000 310.000000"
 preserveAspectRatio="xMidYMid meet">
<metadata>
Created by potrace 1.11, written by Peter Selinger 2001-2013
</metadata>
<g transform="translate(0.000000,310.000000) scale(0.100000,-0.100000)"
fill="#000000" stroke="none">
<path d="M0 1550 l0 -1550 1550 0 1550 0 0 1550 0 1550 -1550 0 -1550 0 0
-1550z m2260 915 c87 -18 117 -35 126 -71 4 -14 2 -114 -3 -222 l-9 -197 -67
69 -67 69 -148 -12 c-289 -24 -467 -68 -618 -151 -77 -42 -174 -124 -174 -146
0 -7 10 -20 23 -28 33 -22 211 -81 407 -137 96 -27 202 -63 236 -79 72 -35
154 -114 186 -179 46 -95 33 -241 -32 -356 -133 -232 -517 -378 -1000 -379
-277 -1 -342 29 -426 198 -33 68 -38 89 -42 165 -4 73 -1 94 16 127 38 75 150
162 264 206 82 31 82 10 0 -74 -39 -40 -75 -85 -81 -99 -15 -40 14 -87 69
-117 44 -24 48 -24 245 -19 279 7 426 35 591 112 57 27 108 59 139 88 48 47
48 47 29 68 -58 64 -288 138 -624 200 -125 23 -184 50 -227 107 -41 54 -49
111 -34 232 17 137 48 245 85 293 90 118 324 247 559 309 188 49 415 58 577
23z"/>
</g>
</svg>
