<?xml version="1.0" encoding="utf-8"?>
<!-- Generator: Adobe Illustrator 16.0.0, SVG Export Plug-In . SVG Version: 6.00 Build 0)  -->
<!DOCTYPE svg PUBLIC "-//W3C//DTD SVG 1.1//EN" "http://www.w3.org/Graphics/SVG/1.1/DTD/svg11.dtd">
<svg version="1.1" id="Layer_1" xmlns="http://www.w3.org/2000/svg" xmlns:xlink="http://www.w3.org/1999/xlink" x="0px" y="0px"
	 width="240px" height="240px" viewBox="0 0 240 240" enable-background="new 0 0 240 240" xml:space="preserve">
<g>
	<linearGradient id="SVGID_1_" gradientUnits="userSpaceOnUse" x1="10.0005" y1="120" x2="230" y2="120">
		<stop  offset="0" style="stop-color:#00A69C"/>
		<stop  offset="1" style="stop-color:#28B472"/>
	</linearGradient>
	<path fill="url(#SVGID_1_)" d="M120.001,10.002C59.248,10.002,10,59.245,10,120c0,60.754,49.247,109.998,110.001,109.998
		C180.756,229.998,230,180.754,230,120C230,59.245,180.756,10.002,120.001,10.002z M191.821,139.118
		c-5.549,0.04-10.554-2.319-14.067-6.082l-33.124,14.015l4.554,10.757c1.094,2.581-0.113,5.561-2.694,6.656
		c-2.588,1.093-5.564-0.122-6.659-2.704l-11.282-26.649l-44.758,18.94c0.103,0.773,0.174,1.556,0.18,2.342
		c0.078,10.514-8.408,19.126-18.919,19.212c-10.505,0.074-19.126-8.405-19.202-18.919c-0.08-10.509,8.405-19.121,18.917-19.208
		c6.093-0.045,11.531,2.796,15.056,7.237l8.284-3.509l-16.47-38.905c-0.611,0.063-1.227,0.105-1.845,0.105
		C59.28,102.491,50.663,94,50.583,83.491c-0.08-10.507,8.405-19.126,18.916-19.206c10.511-0.075,19.124,8.411,19.205,18.919
		c0.046,6.267-2.964,11.845-7.62,15.353l16.377,38.686l27.127-11.482l-3.525-8.33c-0.846,0.119-1.702,0.213-2.582,0.219
		c-10.51,0.081-19.125-8.405-19.207-18.912c-0.08-10.515,8.405-19.127,18.917-19.207c10.51-0.075,19.127,8.41,19.207,18.912
		c0.044,6.003-2.709,11.384-7.036,14.91l10.309,24.345l32.361-13.698c-0.261-1.222-0.399-2.496-0.412-3.791
		c-0.078-10.515,8.405-19.127,18.916-19.208c10.51-0.081,19.124,8.405,19.203,18.912
		C210.817,130.43,202.328,139.046,191.821,139.118z"/>
	<linearGradient id="SVGID_2_" gradientUnits="userSpaceOnUse" x1="61.7549" y1="83.3486" x2="77.5293" y2="83.3486">
		<stop  offset="0" style="stop-color:#00A69C"/>
		<stop  offset="1" style="stop-color:#28B472"/>
	</linearGradient>
	<path fill="url(#SVGID_2_)" d="M77.529,83.29c-0.034-4.35-3.597-7.863-7.943-7.827c-4.353,0.033-7.865,3.599-7.83,7.943
		c0.032,4.354,3.597,7.863,7.948,7.829C74.05,91.206,77.564,87.639,77.529,83.29z"/>
	<linearGradient id="SVGID_3_" gradientUnits="userSpaceOnUse" x1="57.0239" y1="156.54" x2="72.7974" y2="156.54">
		<stop  offset="0" style="stop-color:#00A69C"/>
		<stop  offset="1" style="stop-color:#28B472"/>
	</linearGradient>
	<path fill="url(#SVGID_3_)" d="M64.853,148.647c-4.353,0.045-7.866,3.602-7.829,7.948c0.03,4.359,3.595,7.868,7.946,7.837
		c4.344-0.033,7.857-3.606,7.827-7.949C72.764,152.139,69.199,148.619,64.853,148.647z"/>
	<linearGradient id="SVGID_4_" gradientUnits="userSpaceOnUse" x1="110.4482" y1="98.5859" x2="126.2231" y2="98.5859">
		<stop  offset="0" style="stop-color:#00A69C"/>
		<stop  offset="1" style="stop-color:#28B472"/>
	</linearGradient>
	<path fill="url(#SVGID_4_)" d="M126.223,98.528c-0.032-4.344-3.6-7.858-7.946-7.83c-4.353,0.039-7.861,3.601-7.829,7.95
		c0.03,4.349,3.601,7.858,7.946,7.825C122.747,106.442,126.255,102.877,126.223,98.528z"/>
	<linearGradient id="SVGID_5_" gradientUnits="userSpaceOnUse" x1="183.793" y1="120.0591" x2="199.5684" y2="120.0591">
		<stop  offset="0" style="stop-color:#00A69C"/>
		<stop  offset="1" style="stop-color:#28B472"/>
	</linearGradient>
	<path fill="url(#SVGID_5_)" d="M191.618,112.17c-4.349,0.035-7.855,3.601-7.825,7.951c0.031,4.348,3.595,7.855,7.947,7.827
		c4.346-0.033,7.857-3.594,7.829-7.948C199.529,115.655,195.964,112.141,191.618,112.17z"/>
</g>
</svg>
