<!DOCTYPE svg PUBLIC "-//W3C//DTD SVG 20010904//EN" "http://www.w3.org/TR/2001/REC-SVG-20010904/DTD/svg10.dtd">
<svg version="1.0" xmlns="http://www.w3.org/2000/svg" width="1397px" height="1397px" viewBox="0 0 13970 13970" preserveAspectRatio="xMidYMid meet">
<g id="layer101" fill="#fff" stroke="none">
 <path d="M1147 13950 c-76 -29 -132 -82 -169 -158 l-33 -67 -3 -850 c-7 -1857 59 -3617 199 -5325 97 -1187 165 -1664 334 -2341 399 -1592 1080 -2881 1996 -3774 746 -727 1620 -1177 2609 -1344 249 -42 693 -83 895 -83 161 0 543 31 765 63 2145 306 3771 1937 4583 4599 195 639 312 1189 381 1795 106 921 196 2161 251 3440 42 986 57 1726 58 2840 1 1045 4 1005 -66 1097 -38 51 -113 104 -167 118 -25 7 -589 9 -1701 8 l-1664 -3 -45 -26 c-79 -45 -1103 -822 -1166 -885 -132 -131 -230 -322 -263 -508 -7 -37 -11 -272 -11 -618 0 -307 -2 -558 -4 -558 -2 0 -60 32 -128 71 -179 104 -443 232 -539 262 -216 67 -390 63 -604 -14 -103 -37 -321 -145 -490 -242 l-130 -74 -6 571 c-4 372 -10 588 -18 621 -43 187 -127 348 -250 479 -75 79 -1150 883 -1214 908 -45 17 -126 18 -1700 18 -1592 -1 -1654 -2 -1700 -20z m3652 -969 c256 -193 483 -367 503 -388 20 -21 47 -60 60 -88 l23 -50 3 -756 3 -756 -43 -28 c-192 -127 -834 -601 -960 -710 -86 -73 -199 -204 -270 -310 -152 -230 -426 -891 -581 -1400 -225 -741 -338 -1418 -367 -2192 -9 -251 -6 -330 15 -384 4 -10 -1 -41 -9 -70 -23 -76 -21 -110 24 -349 84 -451 230 -954 384 -1325 98 -236 302 -639 408 -807 103 -163 134 -206 122 -173 -174 497 -268 935 -316 1475 -14 163 -17 753 -5 900 l9 96 171 -23 c531 -71 1337 -156 1812 -193 557 -42 637 -45 1233 -45 585 0 592 0 592 -20 0 -11 7 -94 15 -185 73 -811 -30 -1755 -271 -2479 -30 -90 -53 -165 -52 -167 8 -7 181 297 263 461 278 553 482 1170 600 1808 31 169 73 456 81 559 l7 76 76 7 c42 3 188 17 325 31 137 13 253 21 257 17 5 -5 15 -53 23 -108 32 -217 41 -356 40 -650 -1 -323 -18 -522 -69 -799 -13 -72 -22 -132 -20 -134 13 -13 239 441 319 640 114 283 233 708 276 984 l23 140 186 23 c382 46 848 111 881 122 83 29 157 97 193 178 27 62 32 168 18 458 -46 994 -250 1925 -626 2853 -157 388 -260 597 -373 750 -130 178 -338 349 -971 800 l-241 172 2 766 3 767 27 50 c14 28 41 64 60 81 18 18 240 187 492 378 l459 346 1375 0 1375 0 -6 -1002 c-7 -1108 -19 -1618 -62 -2598 -60 -1347 -183 -2952 -271 -3520 -118 -765 -364 -1617 -675 -2337 -93 -216 -300 -625 -413 -818 -890 -1516 -2088 -2305 -3651 -2405 -893 -57 -1763 129 -2460 525 -1016 577 -1817 1612 -2377 3070 -215 557 -407 1261 -507 1850 -96 564 -223 2205 -286 3665 -42 994 -55 1530 -62 2623 l-6 947 1373 0 1373 0 466 -349z m2273 -1902 c321 -106 930 -492 1778 -1127 151 -114 303 -235 337 -269 84 -86 144 -179 220 -346 331 -723 579 -1662 667 -2527 20 -192 40 -489 34 -496 -7 -6 -437 -64 -813 -108 -553 -66 -1036 -110 -1605 -148 -298 -20 -1178 -17 -1510 5 -635 42 -1387 119 -2115 217 -120 17 -221 30 -222 30 -9 0 33 500 58 695 105 834 357 1734 664 2373 117 243 169 298 554 586 643 481 1177 837 1511 1008 93 47 311 135 342 137 4 1 49 -13 100 -30z"/>
 <path d="M6836 10464 c-198 -48 -378 -229 -464 -466 -36 -100 -38 -229 -4 -303 27 -59 73 -110 122 -135 65 -33 145 -40 480 -40 262 0 337 3 385 16 112 29 191 90 233 182 22 48 24 64 20 145 -13 270 -235 542 -489 602 -79 18 -205 18 -283 -1z"/>
 <path d="M4695 8463 c-116 -235 -207 -481 -241 -658 -47 -240 3 -567 117 -775 59 -106 189 -233 289 -282 126 -61 183 -73 370 -73 192 0 248 11 380 77 259 130 412 444 413 848 1 102 -5 160 -21 236 -38 178 -133 430 -244 647 l-50 97 -477 0 -477 0 -59 -117z m935 -552 c110 -78 85 -245 -42 -279 -74 -20 -154 19 -182 88 -20 51 -20 75 3 125 21 47 38 63 88 81 44 15 98 9 133 -15z m-428 -324 c114 -53 181 -158 181 -284 0 -64 -4 -82 -34 -140 -102 -200 -360 -232 -511 -64 -155 172 -67 454 159 511 59 14 146 5 205 -23z"/>
 <path d="M8236 8557 c-34 -50 -147 -301 -194 -427 -28 -74 -63 -184 -79 -245 -26 -102 -28 -124 -28 -295 1 -167 3 -196 28 -293 69 -277 197 -454 400 -551 129 -63 222 -80 401 -73 226 8 361 62 502 202 67 67 88 97 132 185 63 127 98 260 114 428 26 268 -39 530 -227 920 l-84 172 -475 0 -476 0 -14 -23z m889 -648 c51 -30 71 -80 67 -162 -3 -40 -67 -106 -114 -116 -59 -14 -108 2 -150 48 -38 40 -44 61 -39 126 9 107 137 164 236 104z m-420 -328 c111 -55 170 -153 169 -281 -1 -122 -64 -224 -172 -277 -48 -24 -70 -28 -137 -28 -67 0 -89 4 -137 28 -65 32 -121 90 -151 156 -16 35 -22 66 -22 126 0 60 6 91 22 126 76 167 262 232 428 150z"/>
 </g>
</svg>
