<?xml version="1.0" encoding="utf-8"?>
<svg width="831px" height="104.5" viewBox="0 0 813 104.5" preserveAspectRatio="xMidYMid meet" xmlns="http://www.w3.org/2000/svg">
  <path d="M 32.039 87.301 C 33.862 87.301 35.667 87.119 37.456 86.756 C 39.251 86.393 40.845 85.781 42.237 84.92 C 43.623 84.053 44.746 82.936 45.607 81.571 C 46.467 80.212 46.898 78.531 46.898 76.527 C 46.898 74.119 46.276 72.075 45.032 70.394 C 43.781 68.712 42.134 67.223 40.089 65.925 C 38.044 64.634 35.724 63.443 33.128 62.354 C 30.539 61.257 27.883 60.121 25.159 58.944 C 22.428 57.761 19.769 56.429 17.179 54.949 C 14.59 53.477 12.274 51.694 10.229 49.603 C 8.184 47.512 6.537 45.023 5.286 42.138 C 4.035 39.253 3.41 35.81 3.41 31.808 C 3.41 27.127 4.318 22.877 6.133 19.057 C 7.956 15.244 10.549 12.006 13.911 9.343 C 17.273 6.686 21.363 4.632 26.178 3.179 C 30.993 1.726 36.379 1 42.338 1 C 43.879 1 45.728 1.058 47.887 1.171 C 50.045 1.279 52.342 1.471 54.777 1.746 C 57.205 2.022 59.692 2.375 62.241 2.806 C 64.784 3.236 67.238 3.771 69.606 4.41 L 65.651 21.791 L 64.491 22.336 C 62.494 21.428 60.469 20.654 58.418 20.015 C 56.373 19.377 54.386 18.855 52.456 18.452 C 50.527 18.041 48.711 17.746 47.009 17.564 C 45.301 17.383 43.788 17.292 42.469 17.292 C 38.381 17.292 35.133 18.109 32.725 19.743 C 30.317 21.377 29.113 23.832 29.113 27.107 C 29.113 29.468 29.736 31.468 30.98 33.109 C 32.23 34.744 33.878 36.196 35.923 37.467 C 37.973 38.738 40.304 39.898 42.913 40.948 C 45.529 41.99 48.189 43.113 50.893 44.317 C 53.596 45.52 56.252 46.862 58.862 48.342 C 61.478 49.822 63.808 51.617 65.853 53.729 C 67.898 55.84 69.545 58.362 70.796 61.295 C 72.047 64.227 72.672 67.713 72.672 71.756 C 72.672 76.577 71.751 80.942 69.908 84.849 C 68.065 88.756 65.419 92.095 61.969 94.867 C 58.512 97.638 54.309 99.786 49.359 101.313 C 44.403 102.833 38.835 103.593 32.654 103.593 C 30.428 103.593 28.007 103.479 25.391 103.25 C 22.781 103.028 20.054 102.664 17.21 102.16 C 14.372 101.663 11.5 101.003 8.595 100.183 C 5.682 99.369 2.818 98.347 0 97.116 L 3.884 79.664 L 5.316 78.988 C 8 80.212 10.511 81.326 12.852 82.328 C 15.192 83.323 17.442 84.197 19.601 84.95 C 21.759 85.697 23.861 86.275 25.905 86.685 C 27.95 87.096 29.994 87.301 32.039 87.301 Z" fill="#fff"/>
  <path d="M 810.295 2.362 L 810.295 102.231 L 782.614 102.231 L 782.614 2.362 L 810.295 2.362 Z" fill="#fff"/>
  <path d="M 719.417 66.238 L 708.653 66.238 L 708.653 102.231 L 680.972 102.231 L 680.972 2.362 L 719.346 2.362 C 726.347 2.362 732.393 3.065 737.484 4.47 C 742.575 5.882 746.778 7.782 750.094 10.17 C 753.415 12.55 755.861 15.297 757.427 18.411 C 758.994 21.526 759.778 24.764 759.778 28.126 C 759.778 31.266 759.186 34.209 758.002 36.953 C 756.819 39.704 755.296 42.249 753.433 44.589 C 751.569 46.93 749.515 49.068 747.269 51.005 C 745.016 52.935 742.843 54.65 740.752 56.15 L 768.302 102.231 L 736.324 102.231 Z M 708.653 18.654 L 708.653 51.308 L 724.188 51.308 C 725.237 50.716 726.296 49.919 727.366 48.917 C 728.428 47.921 729.38 46.731 730.221 45.346 C 731.061 43.954 731.744 42.383 732.268 40.635 C 732.793 38.887 733.055 36.946 733.055 34.814 C 733.055 32.494 732.712 30.355 732.026 28.398 C 731.347 26.448 730.349 24.744 729.03 23.284 C 727.712 21.831 726.088 20.698 724.158 19.884 C 722.228 19.064 719.989 18.654 717.439 18.654 Z" fill="#fff"/>
  <path d="M 608.098 103.593 C 600.734 103.593 593.938 102.503 587.711 100.324 C 581.483 98.138 576.11 94.944 571.591 90.741 C 567.071 86.537 563.537 81.379 560.988 75.266 C 558.446 69.153 557.175 62.165 557.175 54.304 C 557.175 46.261 558.503 38.967 561.16 32.423 C 563.816 25.879 567.556 20.278 572.377 15.617 C 577.192 10.964 582.929 7.362 589.587 4.813 C 596.245 2.271 603.595 1 611.639 1 C 619.003 1 625.798 2.089 632.026 4.268 C 638.254 6.447 643.627 9.628 648.147 13.811 C 652.666 17.995 656.2 23.143 658.749 29.256 C 661.291 35.369 662.562 42.357 662.562 50.218 C 662.562 58.261 661.223 65.565 658.547 72.129 C 655.864 78.699 652.124 84.315 647.33 88.975 C 642.534 93.629 636.798 97.23 630.12 99.779 C 623.435 102.321 616.094 103.593 608.098 103.593 Z M 610.479 87.301 C 614.393 87.301 617.826 86.345 620.779 84.436 C 623.73 82.526 626.196 79.98 628.173 76.799 C 630.15 73.619 631.639 69.973 632.642 65.864 C 633.636 61.748 634.135 57.464 634.135 53.012 C 634.135 48.238 633.566 43.691 632.43 39.374 C 631.293 35.056 629.659 31.263 627.527 27.995 C 625.389 24.719 622.776 22.117 619.689 20.187 C 616.595 18.257 613.118 17.292 609.258 17.292 C 605.35 17.292 601.931 18.247 598.999 20.157 C 596.067 22.06 593.612 24.602 591.635 27.783 C 589.658 30.971 588.168 34.63 587.166 38.758 C 586.17 42.894 585.673 47.169 585.673 51.58 C 585.673 56.355 586.238 60.901 587.368 65.219 C 588.504 69.529 590.132 73.322 592.25 76.598 C 594.362 79.873 596.951 82.476 600.018 84.406 C 603.085 86.335 606.571 87.301 610.479 87.301 Z" fill="#fff"/>
  <path d="M 435.013 102.231 L 411.832 102.231 L 419.882 2.362 L 458.528 2.362 L 470.119 48.312 L 474.003 68.618 L 475.364 68.618 L 479.732 48.241 L 491.253 2.362 L 532.764 2.362 L 540.814 102.231 L 510.541 102.231 L 508.019 38.758 L 507.958 19.541 L 506.253 19.541 L 501.956 38.214 L 485.462 100.253 L 460.102 100.253 L 443.598 38.355 L 439.17 19.541 L 437.465 19.541 L 437.465 38.627 L 435.013 102.231 Z" fill="#fff"/>
  <path d="M 390.706 2.362 L 390.706 102.231 L 363.025 102.231 L 363.025 2.362 L 390.706 2.362 Z" fill="#fff"/>
  <path d="M 348.026 102.231 L 314.756 102.231 L 283.192 51.782 L 319.871 2.362 L 345.231 2.362 L 309.642 45.235 L 348.026 102.231 Z" fill="#fff"/>
  <path d="M 283.323 2.362 L 283.323 102.231 L 255.642 102.231 L 255.642 2.362 L 283.323 2.362 Z" fill="#fff"/>
  <path d="M 232.467 2.362 L 232.467 102.231 L 204.787 102.231 C 204.787 102.231 204.787 69.458 204.787 53.071 C 204.787 36.168 204.787 2.362 204.787 2.362 L 232.467 2.362 Z" fill="#fff"/>
  <path d="M 116.713 102.231 L 89.033 102.231 L 89.033 2.362 L 116.713 2.362 L 116.713 42.652 L 153.927 42.652 L 153.927 2.362 L 181.608 2.362 L 181.608 102.231 L 153.927 102.231 L 153.927 58.944 L 116.713 58.944 L 116.713 102.231 Z" fill="#fff"/>
</svg>
