<?xml version="1.0" encoding="utf-8"?>
<!-- Generator: Adobe Illustrator 16.0.0, SVG Export Plug-In . SVG Version: 6.00 Build 0)  -->
<!DOCTYPE svg PUBLIC "-//W3C//DTD SVG 1.1//EN" "http://www.w3.org/Graphics/SVG/1.1/DTD/svg11.dtd">
<svg version="1.1" id="Layer_1" xmlns="http://www.w3.org/2000/svg" xmlns:xlink="http://www.w3.org/1999/xlink" x="0px" y="0px"
	 width="157.746px" height="157.744px" viewBox="0 0 157.746 157.744" enable-background="new 0 0 157.746 157.744"
	 xml:space="preserve">
<circle fill="#E74C3C" cx="78.873" cy="78.873" r="70.534"/>
<g>
	<g>
		<defs>
			<circle id="SVGID_1_" cx="78.873" cy="78.873" r="70.534"/>
		</defs>
		<clipPath id="SVGID_2_">
			<use xlink:href="#SVGID_1_"  overflow="visible"/>
		</clipPath>
		<g opacity="0.3" clip-path="url(#SVGID_2_)">
			<g>
				<circle fill="#FFFFFF" cx="22.493" cy="32.3" r="2.215"/>
				<circle fill="#FFFFFF" cx="5.447" cy="63.806" r="1.54"/>
				<circle fill="#FFFFFF" cx="143.152" cy="97.081" r="1.541"/>
				<circle fill="#FFFFFF" cx="133.979" cy="25.939" r="1.541"/>
				<circle fill="#FFFFFF" cx="114.373" cy="14.09" r="2.215"/>
				<circle fill="#FFFFFF" cx="47.883" cy="18.687" r="4.597"/>
				<circle fill="#FFFFFF" cx="85.594" cy="28.814" r="2.875"/>
				<circle fill="#FFFFFF" cx="38.548" cy="42.615" r="3.059"/>
				<g>
					<path fill="#FFFFFF" d="M122.529,134.562c-1.9-0.342-3.162-2.158-2.822-4.062c0.346-1.899,2.16-3.164,4.063-2.821
						c1.898,0.342,3.165,2.16,2.822,4.059C126.248,133.64,124.431,134.903,122.529,134.562z"/>
					<circle fill="#FFFFFF" cx="82.585" cy="148.849" r="7.259"/>
					<path fill="#FFFFFF" d="M14.702,132.09c-2.465-0.442-4.107-2.804-3.662-5.271c0.444-2.467,2.804-4.107,5.269-3.664
						c2.47,0.443,4.11,2.804,3.665,5.271C19.529,130.894,17.169,132.533,14.702,132.09z"/>
					<circle fill="#FFFFFF" cx="104.089" cy="114.465" r="4.831"/>
				</g>
			</g>
			<g>
				<polyline fill="none" stroke="#FFFFFF" stroke-width="0.452" stroke-miterlimit="10" points="48.087,18.31 22.39,32.285 
					38.548,42.239 87.316,28.422 48.087,18.31 38.548,42.239 				"/>
				<polyline fill="none" stroke="#FFFFFF" stroke-width="0.452" stroke-miterlimit="10" points="5.447,63.87 38.548,42.239 
					15.506,127.246 				"/>
				<polyline fill="none" stroke="#FFFFFF" stroke-width="0.452" stroke-miterlimit="10" points="116.132,13.714 85.593,28.438 
					134.382,25.563 143.153,96.704 				"/>
				<polyline fill="none" stroke="#FFFFFF" stroke-width="0.452" stroke-miterlimit="10" points="82.268,148.414 123.149,131.618 
					104.091,114.089 12.828,126.767 82.268,148.414 104.091,114.089 				"/>
				
					<line fill="none" stroke="#FFFFFF" stroke-width="0.452" stroke-miterlimit="10" x1="104.091" y1="114.089" x2="143.153" y2="97.409"/>
				<polyline fill="none" stroke="#FFFFFF" stroke-width="0.452" stroke-miterlimit="10" points="85.621,31.688 104.091,114.089 
					38.548,42.239 				"/>
				
					<line fill="none" stroke="#FFFFFF" stroke-width="0.452" stroke-miterlimit="10" x1="143.153" y1="97.409" x2="165.873" y2="100.263"/>
			</g>
		</g>
	</g>
</g>
<circle fill="none" cx="78.873" cy="106.394" r="1.77"/>
<path fill="none" d="M37.172,98.906h83.401V51.901H37.172V98.906z M49.975,83.45c0.619,0,1.193,0.179,1.684,0.48l13.248-13.246
	c-0.305-0.49-0.482-1.065-0.482-1.684c0-1.769,1.434-3.201,3.201-3.201s3.201,1.433,3.201,3.201c0,0.361-0.063,0.707-0.173,1.031
	l14.292,8.949c0.578-0.573,1.373-0.928,2.252-0.928c0.794,0,1.521,0.291,2.078,0.771l15.552-11.404
	c-0.164-0.385-0.255-0.809-0.255-1.252c0-1.769,1.435-3.201,3.2-3.201c1.77,0,3.2,1.433,3.2,3.201s-1.433,3.199-3.2,3.199
	c-0.794,0-1.52-0.291-2.077-0.77L90.141,80.004c0.164,0.386,0.254,0.808,0.254,1.252c0,1.769-1.433,3.201-3.199,3.201
	c-1.771,0-3.2-1.433-3.2-3.201c0-0.36,0.063-0.707,0.172-1.03l-14.29-8.949c-0.578,0.573-1.373,0.927-2.252,0.927
	c-0.619,0-1.193-0.179-1.684-0.482L52.693,84.969c0.304,0.488,0.483,1.064,0.483,1.685c0,1.768-1.434,3.199-3.201,3.199
	c-1.769,0-3.201-1.433-3.201-3.199C46.774,84.883,48.207,83.45,49.975,83.45z"/>
<circle fill="none" stroke="#E74C3C" stroke-width="0.6766" stroke-miterlimit="10" cx="78.873" cy="78.873" r="78.534"/>
<path fill="#FEEFEE" d="M94.85,80.042h-5.646c-0.568-2.429-1.486-4.724-2.699-6.831l3.677-3.677c0.694-0.693,0.694-1.828,0-2.521
	l-5.671-5.672c-0.693-0.693-1.827-0.693-2.521,0l-3.395,3.395c-2.492-1.671-5.299-2.908-8.308-3.614v-4.513
	c0-0.98-0.803-1.783-1.784-1.783h-8.02c-0.98,0-1.783,0.802-1.783,1.783v4.514c-2.848,0.667-5.51,1.814-7.901,3.353l-2.733-2.733
	c-0.692-0.693-1.827-0.693-2.521,0l-5.671,5.671c-0.693,0.692-0.693,1.827,0,2.521l2.851,2.852c-1.336,2.22-2.337,4.663-2.945,7.255
	h-3.496c-0.98,0-1.783,0.803-1.783,1.782v8.021c0,0.979,0.802,1.783,1.783,1.783h3.496c0.706,3.01,1.942,5.814,3.614,8.309
	l-2.816,2.817c-0.693,0.692-0.693,1.826,0,2.521l5.671,5.672c0.693,0.693,1.827,0.693,2.521,0l3.099-3.098
	c2.107,1.213,4.402,2.131,6.831,2.699v4.626c0,0.979,0.802,1.782,1.782,1.782h8.02c0.98,0,1.784-0.803,1.784-1.782v-4.626
	c2.592-0.609,5.034-1.609,7.254-2.943l3.745,3.742c0.693,0.692,1.827,0.692,2.521,0l5.673-5.673c0.693-0.69,0.693-1.827,0-2.521
	l-3.626-3.625c1.54-2.392,2.687-5.053,3.354-7.9h5.644c0.979,0,1.782-0.802,1.782-1.783v-8.021
	C96.63,80.847,95.832,80.042,94.85,80.042z M64.493,99.638c-7.61,0-13.801-6.191-13.801-13.803c0-7.61,6.191-13.8,13.801-13.8
	c7.61,0,13.802,6.19,13.802,13.8C78.295,93.444,72.104,99.638,64.493,99.638z"/>
<path fill="#FEEFEE" d="M124.582,58.467l-3.109,1.25c-0.85-1.211-1.865-2.272-2.999-3.165l1.209-2.84
	c0.229-0.536-0.021-1.161-0.559-1.388l-4.38-1.869c-0.537-0.228-1.161,0.024-1.391,0.559l-1.117,2.623
	c-1.744-0.37-3.563-0.429-5.377-0.15L105.861,51c-0.219-0.541-0.839-0.805-1.379-0.587l-4.417,1.777
	c-0.542,0.217-0.806,0.837-0.589,1.377l1,2.487c-1.42,0.999-2.633,2.22-3.609,3.598l-2.11-0.9c-0.536-0.229-1.161,0.023-1.391,0.559
	L91.5,63.69c-0.229,0.535,0.021,1.16,0.558,1.388l2.203,0.939c-0.243,1.519-0.253,3.086-0.014,4.649l-1.927,0.774
	c-0.539,0.217-0.803,0.838-0.586,1.377l1.776,4.418c0.218,0.54,0.837,0.806,1.377,0.588l1.926-0.775
	c1.057,1.501,2.358,2.779,3.832,3.781l-0.928,2.176c-0.229,0.534,0.023,1.161,0.559,1.389l4.381,1.867
	c0.535,0.228,1.16-0.023,1.39-0.56l1.019-2.393c1.43,0.202,2.898,0.199,4.361-0.025l1.024,2.55c0.219,0.539,0.837,0.805,1.378,0.587
	l4.417-1.776c0.54-0.218,0.806-0.839,0.589-1.378l-1.025-2.548c1.293-0.911,2.417-2.006,3.342-3.235l2.892,1.233
	c0.536,0.23,1.161-0.021,1.389-0.56l1.867-4.38c0.229-0.535-0.021-1.16-0.558-1.387l-2.801-1.194
	c0.317-1.658,0.359-3.379,0.097-5.095l3.108-1.25c0.54-0.217,0.804-0.836,0.587-1.378l-1.775-4.417
	C125.741,58.515,125.121,58.25,124.582,58.467z M112.202,75.986c-4.193,1.686-8.975-0.353-10.662-4.545
	c-1.686-4.191,0.354-8.973,4.546-10.66c4.191-1.686,8.974,0.353,10.659,4.543C118.432,69.518,116.394,74.3,112.202,75.986z"/>
</svg>
