<?xml version="1.0" encoding="UTF-8" standalone="no"?>
<svg
   xmlns:dc="http://purl.org/dc/elements/1.1/"
   xmlns:cc="http://creativecommons.org/ns#"
   xmlns:rdf="http://www.w3.org/1999/02/22-rdf-syntax-ns#"
   xmlns:svg="http://www.w3.org/2000/svg"
   xmlns="http://www.w3.org/2000/svg"
   xmlns:sodipodi="http://sodipodi.sourceforge.net/DTD/sodipodi-0.dtd"
   xmlns:inkscape="http://www.inkscape.org/namespaces/inkscape"
   width="1000"
   height="1000"
   version="1.1"
   id="svg3733"
   sodipodi:docname="letter-m-path.svg"
   inkscape:version="0.92.4 (5da689c313, 2019-01-14)">
  <metadata
     id="metadata3739">
    <rdf:RDF>
      <cc:Work
         rdf:about="">
        <dc:format>image/svg+xml</dc:format>
        <dc:type
           rdf:resource="http://purl.org/dc/dcmitype/StillImage" />
        <dc:title />
      </cc:Work>
    </rdf:RDF>
  </metadata>
  <defs
     id="defs3737" />
  <sodipodi:namedview
     pagecolor="#ffffff"
     bordercolor="#666666"
     borderopacity="1"
     objecttolerance="10"
     gridtolerance="10"
     guidetolerance="10"
     inkscape:pageopacity="0"
     inkscape:pageshadow="2"
     inkscape:window-width="1920"
     inkscape:window-height="1017"
     id="namedview3735"
     showgrid="false"
     inkscape:snap-grids="true"
     inkscape:pagecheckerboard="true"
     showborder="true"
     borderlayer="false"
     inkscape:zoom="0.50027805"
     inkscape:cx="-149.75014"
     inkscape:cy="521.16199"
     inkscape:window-x="-8"
     inkscape:window-y="-8"
     inkscape:window-maximized="1"
     inkscape:current-layer="svg3733"
     fit-margin-bottom="0"
     fit-margin-top="0"
     fit-margin-left="0"
     fit-margin-right="0" />
  <g
     aria-label="M "
     style="font-style:normal;font-variant:normal;font-weight:normal;font-stretch:normal;font-size:633.33331299px;line-height:1.25;font-family:Tahoma;-inkscape-font-specification:'Tahoma, Normal';font-variant-ligatures:normal;font-variant-caps:normal;font-variant-numeric:normal;font-feature-settings:normal;text-align:start;letter-spacing:0px;word-spacing:0px;writing-mode:lr-tb;text-anchor:start;fill:#000000;fill-opacity:1;stroke:none"
     id="text4549" />
  <g
     aria-label="M
"
     style="font-style:normal;font-variant:normal;font-weight:normal;font-stretch:normal;font-size:600px;line-height:1.25;font-family:Tahoma;-inkscape-font-specification:'Tahoma, Normal';font-variant-ligatures:normal;font-variant-caps:normal;font-variant-numeric:normal;font-feature-settings:normal;text-align:start;letter-spacing:0px;word-spacing:0px;writing-mode:lr-tb;text-anchor:start;fill:#000000;fill-opacity:1;stroke:none"
     id="text4549-0">
    <path
       id="path18"
       style=""
       d="M 686.92737,718.10852 H 628.91956 V 342.22961 L 515.24768,597.99133 H 480.09143 L 367.29846,342.22961 V 718.10852 H 313.09924 V 281.87805 h 79.10157 l 108.98437,242.8711 105.17578,-242.8711 h 80.56641 z M 0,499.99334 C 0,637.99335 49.00001,755.99335 147.00001,853.99335 245,951.99331 362.66667,1000.6598 500,999.99324 637.33333,999.32664 755.33333,950.65998 853.99998,853.99335 952.66664,757.32668 1001.3333,639.32668 999.99995,499.99334 998.66665,360.66 949.99998,242.66001 853.99998,145.99334 757.99999,49.326675 640,0.66000457 500,-0.00666543 360,-0.67333543 242.33333,47.993035 147.00001,145.99303 51.66671,243.99303 2.6667,361.99334 0,499.99334 Z m 80.00002,0 c 0,-108 50.3333,-220.00032 126.99999,-296.00031 C 283.66668,127.99304 392.66667,80.666705 500,80.000035 607.33333,79.333375 716.33334,126.6667 793.00001,204.00003 c 76.66665,77.33332 127,189.32664 127,295.99331 0,106.66667 -50.33335,215.66636 -127,292.99969 C 716.33334,870.32636 607.33333,920.6667 500,920.00003 392.66667,919.33336 283.66668,868.99303 207.00001,792.99303 130.33332,716.99303 80.00002,607.99335 80.00002,499.99334 Z" />
  </g>
</svg>
