<?xml version="1.0" encoding="UTF-8" standalone="no"?>
<svg
   xmlns:dc="http://purl.org/dc/elements/1.1/"
   xmlns:cc="http://creativecommons.org/ns#"
   xmlns:rdf="http://www.w3.org/1999/02/22-rdf-syntax-ns#"
   xmlns:svg="http://www.w3.org/2000/svg"
   xmlns="http://www.w3.org/2000/svg"
   xmlns:sodipodi="http://sodipodi.sourceforge.net/DTD/sodipodi-0.dtd"
   xmlns:inkscape="http://www.inkscape.org/namespaces/inkscape"
   width="1000"
   height="1000"
   version="1.1"
   id="svg3733"
   sodipodi:docname="letter-a-path.svg"
   inkscape:version="0.92.4 (5da689c313, 2019-01-14)">
  <metadata
     id="metadata3739">
    <rdf:RDF>
      <cc:Work
         rdf:about="">
        <dc:format>image/svg+xml</dc:format>
        <dc:type
           rdf:resource="http://purl.org/dc/dcmitype/StillImage" />
        <dc:title />
      </cc:Work>
    </rdf:RDF>
  </metadata>
  <defs
     id="defs3737" />
  <sodipodi:namedview
     pagecolor="#ffffff"
     bordercolor="#666666"
     borderopacity="1"
     objecttolerance="10"
     gridtolerance="10"
     guidetolerance="10"
     inkscape:pageopacity="0"
     inkscape:pageshadow="2"
     inkscape:window-width="1920"
     inkscape:window-height="1017"
     id="namedview3735"
     showgrid="false"
     inkscape:snap-grids="true"
     inkscape:pagecheckerboard="true"
     showborder="true"
     borderlayer="false"
     inkscape:zoom="0.50027805"
     inkscape:cx="446.44144"
     inkscape:cy="432.92139"
     inkscape:window-x="-8"
     inkscape:window-y="-8"
     inkscape:window-maximized="1"
     inkscape:current-layer="svg3733"
     fit-margin-bottom="0"
     fit-margin-top="0"
     fit-margin-left="0"
     fit-margin-right="0" />
  <g
     aria-label="A"
     style="font-style:normal;font-variant:normal;font-weight:normal;font-stretch:normal;font-size:633.33331299px;line-height:1.25;font-family:HelveticaNeueCyr;-inkscape-font-specification:'HelveticaNeueCyr, Normal';font-variant-ligatures:normal;font-variant-caps:normal;font-variant-numeric:normal;font-feature-settings:normal;text-align:start;letter-spacing:0px;word-spacing:0px;writing-mode:lr-tb;text-anchor:start;fill:#000000;fill-opacity:1;stroke:none"
     id="text4549" />
  <circle
     cy="549.97223"
     cx="557.96777"
     id="ellipse3727"
     style="fill:none;fill-opacity:1;stroke:#000000;stroke-width:84.74575806;stroke-opacity:1"
     r="0" />
  <g
     aria-label="A"
     style="font-style:normal;font-variant:normal;font-weight:normal;font-stretch:normal;font-size:600px;line-height:1.25;font-family:HelveticaNeueCyr;-inkscape-font-specification:'HelveticaNeueCyr, Normal';font-variant-ligatures:normal;font-variant-caps:normal;font-variant-numeric:normal;font-feature-settings:normal;text-align:start;letter-spacing:0px;word-spacing:0px;writing-mode:lr-tb;text-anchor:start;fill:#000000;fill-opacity:1;stroke:none"
     id="text4549-5">
    <path
       id="path17"
       style=""
       d="m 532.41331,286.39326 166.8,427.2 h -63 l -47.4,-130.8 h -179.4 l -48.6,130.8 h -60 l 168,-427.2 z m 39.6,251.4 -72.6,-197.4 -73.8,197.4 z M 0,499.99331 c 0,138.00001 49,256.00001 147,354.00001 97.99999,97.99996 215.66666,146.66658 352.99999,145.99992 137.33333,-0.6666 255.33333,-49.33329 353.99998,-145.99992 98.66666,-96.66667 147.33333,-214.66667 146,-354.00001 -1.33334,-139.33333 -50,-257.33332 -146,-354 C 757.99998,49.326643 639.99999,0.65997757 499.99999,-0.00669243 359.99999,-0.67336283 242.33332,47.993 147,145.993 51.6667,243.99301 2.6667,361.99332 0,499.99331 Z m 80,0 C 80,391.99332 130.33331,279.993 207,203.993 283.66667,127.993 392.66666,80.66667 499.99999,80 607.33332,79.33334 716.33333,126.66666 793,204 869.66665,281.33333 920,393.32665 920,499.99331 920,606.65998 869.66665,715.65967 793,792.993 716.33333,870.32633 607.33332,920.66667 499.99999,920 392.66666,919.33333 283.66667,868.993 207,792.993 130.33331,716.993 80,607.99332 80,499.99331 Z" />
  </g>
</svg>
